<mxfile host="app.diagrams.net" modified="2022-07-10T03:23:18.991Z" agent="5.0 (Windows NT 10.0; WOW64) AppleWebKit/537.36 (KHTML, like Gecko) Chrome/78.0.3904.108 Safari/537.36" etag="yplpWKzoHhx5xOHWKeMd" version="20.0.4" type="github">
  <diagram id="oPbZiHAzVxmNo4ZuS6LW" name="Page-1">
    <mxGraphModel dx="1422" dy="762" grid="1" gridSize="10" guides="1" tooltips="1" connect="1" arrows="1" fold="1" page="1" pageScale="1" pageWidth="827" pageHeight="1169" math="0" shadow="0">
      <root>
        <mxCell id="0" />
        <mxCell id="1" parent="0" />
        <mxCell id="HEcll5zw7bfpOyX7mz7_-5" style="edgeStyle=orthogonalEdgeStyle;rounded=0;orthogonalLoop=1;jettySize=auto;html=1;" edge="1" parent="1" source="HEcll5zw7bfpOyX7mz7_-1" target="HEcll5zw7bfpOyX7mz7_-4">
          <mxGeometry relative="1" as="geometry" />
        </mxCell>
        <mxCell id="HEcll5zw7bfpOyX7mz7_-6" style="edgeStyle=orthogonalEdgeStyle;rounded=0;orthogonalLoop=1;jettySize=auto;html=1;" edge="1" parent="1" source="HEcll5zw7bfpOyX7mz7_-1" target="HEcll5zw7bfpOyX7mz7_-2">
          <mxGeometry relative="1" as="geometry" />
        </mxCell>
        <mxCell id="HEcll5zw7bfpOyX7mz7_-1" value="匹配电子合同" style="rounded=1;whiteSpace=wrap;html=1;" vertex="1" parent="1">
          <mxGeometry x="340" y="180" width="120" height="60" as="geometry" />
        </mxCell>
        <mxCell id="HEcll5zw7bfpOyX7mz7_-2" value="有" style="rounded=1;whiteSpace=wrap;html=1;" vertex="1" parent="1">
          <mxGeometry x="240" y="360" width="120" height="60" as="geometry" />
        </mxCell>
        <mxCell id="HEcll5zw7bfpOyX7mz7_-8" style="edgeStyle=orthogonalEdgeStyle;rounded=0;orthogonalLoop=1;jettySize=auto;html=1;" edge="1" parent="1" source="HEcll5zw7bfpOyX7mz7_-4" target="HEcll5zw7bfpOyX7mz7_-7">
          <mxGeometry relative="1" as="geometry" />
        </mxCell>
        <mxCell id="HEcll5zw7bfpOyX7mz7_-10" style="edgeStyle=orthogonalEdgeStyle;rounded=0;orthogonalLoop=1;jettySize=auto;html=1;" edge="1" parent="1" source="HEcll5zw7bfpOyX7mz7_-4" target="HEcll5zw7bfpOyX7mz7_-9">
          <mxGeometry relative="1" as="geometry" />
        </mxCell>
        <mxCell id="HEcll5zw7bfpOyX7mz7_-4" value="是否包含关键字" style="rounded=1;whiteSpace=wrap;html=1;" vertex="1" parent="1">
          <mxGeometry x="430" y="360" width="120" height="60" as="geometry" />
        </mxCell>
        <mxCell id="HEcll5zw7bfpOyX7mz7_-14" style="edgeStyle=orthogonalEdgeStyle;rounded=0;orthogonalLoop=1;jettySize=auto;html=1;" edge="1" parent="1" source="HEcll5zw7bfpOyX7mz7_-7" target="HEcll5zw7bfpOyX7mz7_-13">
          <mxGeometry relative="1" as="geometry" />
        </mxCell>
        <mxCell id="HEcll5zw7bfpOyX7mz7_-7" value="包含关键字" style="rounded=1;whiteSpace=wrap;html=1;" vertex="1" parent="1">
          <mxGeometry x="360" y="520" width="120" height="60" as="geometry" />
        </mxCell>
        <mxCell id="HEcll5zw7bfpOyX7mz7_-12" style="edgeStyle=orthogonalEdgeStyle;rounded=0;orthogonalLoop=1;jettySize=auto;html=1;" edge="1" parent="1" source="HEcll5zw7bfpOyX7mz7_-9" target="HEcll5zw7bfpOyX7mz7_-11">
          <mxGeometry relative="1" as="geometry" />
        </mxCell>
        <mxCell id="HEcll5zw7bfpOyX7mz7_-9" value="不包含关键字" style="rounded=1;whiteSpace=wrap;html=1;" vertex="1" parent="1">
          <mxGeometry x="510" y="520" width="120" height="60" as="geometry" />
        </mxCell>
        <mxCell id="HEcll5zw7bfpOyX7mz7_-11" value="无行号" style="rounded=1;whiteSpace=wrap;html=1;" vertex="1" parent="1">
          <mxGeometry x="510" y="650" width="120" height="60" as="geometry" />
        </mxCell>
        <mxCell id="HEcll5zw7bfpOyX7mz7_-13" value="行号错误" style="rounded=1;whiteSpace=wrap;html=1;" vertex="1" parent="1">
          <mxGeometry x="360" y="650" width="120" height="60" as="geometry" />
        </mxCell>
      </root>
    </mxGraphModel>
  </diagram>
</mxfile>
